# Blender 4.3.2
# www.blender.org
mtllib skybox.mtl
o Cube
v -0.793198 -1.000000 1.000000
v -0.793198 1.000000 1.000000
v -0.793198 -1.000000 -1.000000
v -0.793198 1.000000 -1.000000
v 1.206802 -1.000000 1.000000
v 1.206802 1.000000 1.000000
v 1.206802 -1.000000 -1.000000
v 1.206802 1.000000 -1.000000
vn -1.0000 -0.0000 -0.0000
vn -0.0000 -0.0000 -1.0000
vn 1.0000 -0.0000 -0.0000
vn -0.0000 -0.0000 1.0000
vn -0.0000 -1.0000 -0.0000
vn -0.0000 1.0000 -0.0000
vt 1.000405 0.338440
vt 0.999590 0.666081
vt 0.749592 0.665014
vt 0.750406 0.337373
vt 0.499593 0.663947
vt 0.500407 0.336306
vt 0.249594 0.662880
vt 0.250408 0.335239
vt -0.000405 0.661812
vt 0.000410 0.334172
vt 0.501221 0.008665
vt 0.251223 0.007598
vt 0.498779 0.991588
vt 0.248780 0.990520
s 0
usemtl Material.001
f 1/1/1 2/2/1 4/3/1 3/4/1
f 3/4/2 4/3/2 8/5/2 7/6/2
f 7/6/3 8/5/3 6/7/3 5/8/3
f 5/8/4 6/7/4 2/9/4 1/10/4
f 3/11/5 7/6/5 5/8/5 1/12/5
f 8/5/6 4/13/6 2/14/6 6/7/6
